<?xml version="1.0" encoding="UTF-8" standalone="no"?>
<!-- Created with Inkscape (http://www.inkscape.org/) -->

<svg
   version="1.1"
   id="svg350"
   width="1600"
   height="1600"
   viewBox="0 0 1600 1600"
   sodipodi:docname="broken-egg-pdv.svg"
   inkscape:version="1.2 (dc2aedaf03, 2022-05-15)"
   xmlns:inkscape="http://www.inkscape.org/namespaces/inkscape"
   xmlns:sodipodi="http://sodipodi.sourceforge.net/DTD/sodipodi-0.dtd"
   xmlns="http://www.w3.org/2000/svg"
   xmlns:svg="http://www.w3.org/2000/svg">
  <defs
     id="defs354">
    <clipPath
       clipPathUnits="userSpaceOnUse"
       id="clipPath366">
      <path
         d="M 0,1200 H 1200 V 0 H 0 Z"
         id="path364" />
    </clipPath>
  </defs>
  <sodipodi:namedview
     id="namedview352"
     pagecolor="#ffffff"
     bordercolor="#000000"
     borderopacity="0.25"
     inkscape:showpageshadow="2"
     inkscape:pageopacity="0.0"
     inkscape:pagecheckerboard="0"
     inkscape:deskcolor="#d1d1d1"
     showgrid="false"
     inkscape:zoom="0.523125"
     inkscape:cx="800"
     inkscape:cy="800.95579"
     inkscape:window-width="1920"
     inkscape:window-height="1017"
     inkscape:window-x="-8"
     inkscape:window-y="-8"
     inkscape:window-maximized="1"
     inkscape:current-layer="g358">
    <inkscape:page
       x="0"
       y="0"
       id="page356"
       width="1600"
       height="1600" />
  </sodipodi:namedview>
  <g
     id="g358"
     inkscape:groupmode="layer"
     inkscape:label="Page 1"
     transform="matrix(1.3333333,0,0,-1.3333333,0,1600)">
    <g
       id="g360">
      <g
         id="g362"
         clip-path="url(#clipPath366)">
        <g
           id="g368"
           transform="translate(774.293,614.4575)">
          <path
             d="m 0,0 -95.012,-13.096 c -30.818,-4.244 -54.742,-25.303 -62.866,-55.333 l -10.702,-39.566 c -4.103,-15.165 -9.421,-28.996 -16.193,-41.906 -22.28,-42.491 -32.153,-85.77 -29.774,-131.123 1.573,-30.026 -16.798,-56.424 -45.5,-65.382 l -89.897,-28.047 -79.64,-2.094 c -11.179,-0.294 -20.645,-5.862 -26.334,-15.492 -0.848,-1.433 -1.576,-2.897 -2.186,-4.379 -3.345,-8.169 -2.333,-16.781 2.813,-23.952 5.15,-7.168 12.987,-10.881 21.798,-10.317 l 47.129,3.006 c 17.583,1.121 33.211,-8.755 39.748,-25.122 0.295,-0.746 0.641,-1.486 1.03,-2.21 3.864,-7.168 11.179,-11.13 19.292,-10.457 l 75.682,6.291 c 54.23,4.509 101.131,1.328 154.258,-10.461 35.467,-7.868 69.768,-1.566 100.789,18.585 23.258,15.102 48.205,22.144 76.648,21.703 l 23.769,-0.371 c 7.925,-0.119 14.767,4.231 18.018,11.459 3.247,7.227 1.962,15.235 -3.392,21.079 -13.886,15.166 -31.836,24.642 -53.154,27.97 l -93.87,14.672 c -31.999,4.995 -56.459,27.556 -64.029,59.043 -9.704,40.365 -8.944,79.651 2.158,121.462 5.332,20.091 6.628,39.506 4.204,61.086 l -7.311,65.021 118.743,15.442 z"
             style="fill:#e8ded3;fill-opacity:1;fill-rule:evenodd;stroke:none"
             id="path370" />
        </g>
        <g
           id="g372"
           transform="translate(843.4092,198.8662)">
          <path
             d="m 0,0 c 5.324,0.455 10.74,0.638 16.251,0.554 l 23.77,-0.372 c 4.036,-0.063 7.325,2.032 8.982,5.714 1.65,3.675 1.03,7.536 -1.691,10.506 C 34.584,30.303 18.437,38.424 -0.161,41.332 L -69.922,52.227 C -36.609,38.182 25.917,33.982 38.605,12.254 43.734,3.476 9.483,3.686 -0.004,0 Z"
             style="fill:#ffffff;fill-opacity:1;fill-rule:evenodd;stroke:none"
             id="path374" />
        </g>
        <g
           id="g376"
           transform="translate(659.0918,158.5859)">
          <path
             d="M 0,0 C 7.003,-1.289 13.988,-2.712 20.96,-4.26 52.668,-11.295 82.95,-6.054 110.434,10.545 75.506,-2.105 38.676,-5.542 0,0"
             style="fill:#ffffff;fill-opacity:1;fill-rule:evenodd;stroke:none"
             id="path378" />
        </g>
        <g
           id="g380"
           transform="translate(436.7227,165.2627)">
          <path
             d="m 0,0 c 0.161,-0.406 0.35,-0.809 0.561,-1.198 2.02,-3.748 5.664,-5.724 9.91,-5.37 16.195,1.345 32.394,2.694 48.59,4.039 C 44.561,1.156 25.65,-2.48 11.154,1.205 2.918,3.301 -0.904,12.721 -9.137,14.815 -9.137,14.813 -1.851,4.632 0,0"
             style="fill:#ffffff;fill-opacity:1;fill-rule:evenodd;stroke:none"
             id="path382" />
        </g>
        <g
           id="g384"
           transform="translate(425.2734,234.5996)">
          <path
             d="m 0,0 -80.991,-2.13 c -7.83,-0.207 -14.228,-3.97 -18.21,-10.713 -0.593,-0.995 -1.114,-2.039 -1.556,-3.115 -1.033,-2.529 -1.405,-5.062 -1.118,-7.521 C -76.356,-2.008 -33.96,-7.826 0,0"
             style="fill:#ffffff;fill-opacity:1;fill-rule:evenodd;stroke:none"
             id="path386" />
        </g>
        <g
           id="g388"
           transform="translate(769.2344,944.7095)">
          <path
             d="m 0,0 -44.526,-46.992 -50.153,7.413 -33.06,-63.837 -45.025,7.409 -50.152,-29.066 -53.008,23.938 -59.271,-42.176 -38.277,60.197 307.86,115.916 z"
             style="fill:#bd9d33;fill-opacity:1;fill-rule:evenodd;stroke:none"
             id="path390" />
        </g>
        <g
           id="g392"
           transform="translate(520.7373,1148.1685)">
          <path
             d="m 0,0 c 98.701,24.716 213.986,-92.941 248.49,-203.483 l -10.703,-32.409 -58.066,25.41 -22.642,-73.825 -37.341,45.879 -61.076,-56.424 -82.953,30.927 -39.51,-58.07 -61.174,35.422 C -142.204,-173.765 -95.835,-24.001 0,0"
             style="fill:#ebc959;fill-opacity:1;fill-rule:evenodd;stroke:none"
             id="path394" />
        </g>
        <g
           id="g396"
           transform="translate(499.2451,1124.6655)">
          <path
             d="m 0,0 c 53.603,13.425 100,-57.923 102.242,-120.659 1.98,-55.296 -30.135,-109.807 -74.486,-131.155 l -30.555,11.392 -13.965,-20.529 c -41.523,2.971 -73.246,39.426 -75.116,91.68 C -94.122,-106.534 -53.607,-13.425 0,0"
             style="fill:#f0d26e;fill-opacity:1;fill-rule:evenodd;stroke:none"
             id="path398" />
        </g>
        <g
           id="g400"
           transform="translate(708.208,1056.0786)">
          <path
             d="m 0,0 c 27.353,-33.817 49.052,-73.022 61.026,-111.369 l -10.71,-32.433 -15.999,6.999 c 0.48,16.396 -0.682,33.078 -3.657,49.785 C 25.503,-58.07 14.779,-28.177 0,0"
             style="fill:#e3bf4b;fill-opacity:1;fill-rule:evenodd;stroke:none"
             id="path402" />
        </g>
        <g
           id="g404"
           transform="translate(785.9971,934.6519)">
          <path
             d="M 0,0 C 4.828,-0.939 9.582,-1.986 14.234,-3.174 128.44,-32.269 199.791,-139.181 173.607,-241.967 147.421,-344.749 33.61,-404.486 -80.592,-375.391 c -7.83,1.997 -15.73,4.442 -23.64,7.266 l 60.224,37.015 -32.342,62.35 66.612,58.313 -20.649,80.543 58.105,11.077 -54.216,54.98 49.938,39.033 z"
             style="fill:#ebc959;fill-opacity:1;fill-rule:evenodd;stroke:none"
             id="path406" />
        </g>
        <g
           id="g408"
           transform="translate(734.1846,687.3706)">
          <path
             d="m 0,0 c -0.305,-6.617 -1.24,-13.143 -2.855,-19.495 -2.281,-8.947 -5.767,-16.977 -10.248,-24.026 l -11.434,22.042 z"
             style="fill:#f0d26e;fill-opacity:1;fill-rule:evenodd;stroke:none"
             id="path410" />
        </g>
        <g
           id="g412"
           transform="translate(785.9795,934.6694)">
          <path
             d="m 0,0 c 4.835,-0.938 9.593,-2.004 14.252,-3.191 114.206,-29.095 185.557,-136.007 159.373,-238.793 -16.84,-66.093 -69.914,-114.381 -136.024,-132.7 40.021,22.376 70.237,59.16 82.27,106.405 C 142.3,-180.26 94.382,-84.516 9.701,-35.583 l 13.757,10.752 z"
             style="fill:#e3bf4b;fill-opacity:1;fill-rule:evenodd;stroke:none"
             id="path414" />
        </g>
        <g
           id="g416"
           transform="translate(317.04,219.9424)">
          <path
             d="m 0,0 c -0.305,-0.631 -0.592,-1.266 -0.851,-1.902 -3.345,-8.167 -2.333,-16.782 2.813,-23.952 5.15,-7.168 12.987,-10.881 21.798,-10.318 l 47.129,3.006 c 17.583,1.121 33.215,-8.755 39.748,-25.122 0.295,-0.746 0.641,-1.485 1.03,-2.21 3.864,-7.168 11.179,-11.13 19.292,-10.457 l 75.682,6.291 c 54.23,4.509 101.131,1.328 154.258,-10.461 35.467,-7.868 69.768,-1.565 100.789,18.585 23.258,15.102 48.205,22.145 76.648,21.703 l 23.769,-0.371 c 6.713,-0.102 12.647,3.006 16.28,8.352 -2.68,-1.3 -5.713,-1.976 -8.933,-1.927 l -23.97,0.371 c -28.684,0.441 -64.179,-6.803 -87.42,-21.906 -31,-20.147 -55.064,-26.249 -90.934,-18.381 -53.73,11.785 -101.066,14.966 -155.689,10.457 l -76.223,-6.288 c -8.173,-0.677 -15.604,3.286 -19.598,10.453 -0.406,0.729 -0.764,1.465 -1.071,2.211 -6.818,16.363 -22.712,26.243 -40.428,25.122 L 26.639,-29.75 C 17.766,-30.311 9.81,-26.601 4.516,-19.43 0.196,-13.576 -1.355,-6.755 0,0"
             style="fill:#cfc4b8;fill-opacity:1;fill-rule:evenodd;stroke:none"
             id="path418" />
        </g>
        <g
           id="g420"
           transform="translate(621.9043,484.2354)">
          <path
             d="m 0,0 c 31.046,0 49.063,-43.034 40.239,-96.123 -8.828,-53.088 -41.153,-96.122 -72.203,-96.122 -31.045,0 -49.059,43.034 -40.238,96.122 C -63.374,-43.034 -31.053,0 0,0"
             style="fill:#f5ac00;fill-opacity:1;fill-rule:evenodd;stroke:none"
             id="path422" />
        </g>
        <g
           id="g424"
           transform="translate(610.8242,472.1904)">
          <path
             d="m 0,0 c 17.635,0 23.766,-24.445 13.694,-54.595 -10.076,-30.156 -32.539,-54.598 -50.171,-54.598 -17.634,0 -23.765,24.442 -13.694,54.598 C -40.095,-24.445 -17.632,0 0,0"
             style="fill:#ffcc00;fill-opacity:1;fill-rule:evenodd;stroke:none"
             id="path426" />
        </g>
        <g
           id="g428"
           transform="translate(653.6123,463.0049)">
          <path
             d="m 0,0 c 9.862,-17.621 13.561,-44.617 8.531,-74.893 -8.828,-53.087 -41.149,-96.122 -72.203,-96.122 -15.995,0 -28.53,11.424 -35.723,29.764 7.435,-13.277 18.369,-21.231 31.708,-21.231 31.05,0 63.375,43.035 72.2,96.124 C 8.794,-40.624 6.762,-17.25 0,0"
             style="fill:#e39400;fill-opacity:1;fill-rule:evenodd;stroke:none"
             id="path430" />
        </g>
      </g>
    </g>
  </g>
</svg>
